<svg xmlns="http://www.w3.org/2000/svg" width="24" height="24"><rect id="backgroundrect" width="100%" height="100%" x="0" y="0" fill="none" stroke="none"/><title>192 log in</title><g class="currentLayer" style=""><title>Layer 1</title><g id="_01_align_center" data-name="01 align center" class="" fill="#ffffff" fill-opacity="1"><path d="M2,21V3A1,1,0,0,1,3,2H8V0H3A3,3,0,0,0,0,3V21a3,3,0,0,0,3,3H8V22H3A1,1,0,0,1,2,21Z" id="svg_1" fill="#ffffff" fill-opacity="1"/><path d="M24,13l0-2-16.444.031,4.323-4.324L10.463,5.293,5.877,9.879a3,3,0,0,0,0,4.242l4.586,4.586,1.414-1.414L7.614,13.03Z" id="svg_2" fill="#ffffff" fill-opacity="1"/></g><g data-name="01 align center" class="" fill="#ffffff" fill-opacity="1" id="svg_3"><path d="M2,21V3A1,1,0,0,1,3,2H8V0H3A3,3,0,0,0,0,3V21a3,3,0,0,0,3,3H8V22H3A1,1,0,0,1,2,21Z" id="svg_4" fill="#ffffff" fill-opacity="1"/><path d="M24,13l0-2-16.444.031,4.323-4.324L10.463,5.293,5.877,9.879a3,3,0,0,0,0,4.242l4.586,4.586,1.414-1.414L7.614,13.03Z" id="svg_5" fill="#ffffff" fill-opacity="1"/></g></g></svg>