<svg xmlns="http://www.w3.org/2000/svg" width="24" height="24" style=""><rect id="backgroundrect" width="100%" height="100%" x="0" y="0" fill="none" stroke="none"/><title>73 collection</title><g class="currentLayer" style=""><title>Layer 1</title><g id="_01_align_center" data-name="01 align center" class="selected" fill="#ffffff" fill-opacity="1"><path d="M11,11H0V3A3,3,0,0,1,3,0h8ZM2,9H9V2H3A1,1,0,0,0,2,3Z" id="svg_1" fill="#ffffff" fill-opacity="1"/><path d="M24,11H13V0h8a3,3,0,0,1,3,3ZM15,9h7V3a1,1,0,0,0-1-1H15Z" id="svg_2" fill="#ffffff" fill-opacity="1"/><path d="M11,24H3a3,3,0,0,1-3-3V13H11ZM2,15v6a1,1,0,0,0,1,1H9V15Z" id="svg_3" fill="#ffffff" fill-opacity="1"/><path d="M21,24H13V13H24v8A3,3,0,0,1,21,24Zm-6-2h6a1,1,0,0,0,1-1V15H15Z" id="svg_4" fill="#ffffff" fill-opacity="1"/></g></g></svg>