<svg xmlns="http://www.w3.org/2000/svg" data-name="Layer 1" width="24" height="24"><rect id="backgroundrect" width="100%" height="100%" x="0" y="0" fill="none" stroke="none"/><g class="currentLayer" style=""><title>Layer 1</title><path d="M12,1A11.995,11.995,0,0,0,5.112,22.818L5.371,23H18.629l.259-.182A11.995,11.995,0,0,0,12,1Zm5.988,20H6.012a10,10,0,1,1,11.976,0ZM20,13a7.939,7.939,0,0,1-2.406,5.715l-1.4-1.43a5.945,5.945,0,0,0,1.595-5.833l1.575-1.575A7.968,7.968,0,0,1,20,13ZM6,13a5.951,5.951,0,0,0,1.8,4.285l-1.4,1.43a8,8,0,0,1,8.717-13.08L13.548,7.21A5.977,5.977,0,0,0,6,13Zm7.926-.512a2.033,2.033,0,1,1-1.414-1.414l4.281-4.281,1.414,1.414Z" id="svg_1" class="selected" fill="#ffffff" fill-opacity="1"/></g></svg>