<svg xmlns="http://www.w3.org/2000/svg" data-name="Layer 1" width="24" height="24"><rect id="backgroundrect" width="100%" height="100%" x="0" y="0" fill="none" stroke="none"/><g class="currentLayer" style=""><title>Layer 1</title><path d="M12,0A12,12,0,1,0,24,12,12.013,12.013,0,0,0,12,0Zm0,22A10,10,0,1,1,22,12,10.011,10.011,0,0,1,12,22ZM12,7a2.993,2.993,0,0,0-1,5.816V17h2V12.816A2.993,2.993,0,0,0,12,7Zm0,4a1,1,0,1,1,1-1A1,1,0,0,1,12,11Z" id="svg_1" class="selected" fill="#ffffff" fill-opacity="1"/></g></svg>