<svg xmlns="http://www.w3.org/2000/svg" width="24" height="24" style=""><rect id="backgroundrect" width="100%" height="100%" x="0" y="0" fill="none" stroke="none" class="" style=""/><g class="currentLayer" style=""><title>Layer 1</title><path d="M4.5,17.50000000000003 H2 a2,2 0 0 0 -2,2 V22.00000000000003 a2,2 0 0 0 2,2 h2.5 a2,2 0 0 0 2,-2 v-2.5 a2,2 0 0 0 -2,-2 zm0,4.5 H2 v-2.5 h2.5 zM22,17.50000000000003 h-2.5 a2,2 0 0 0 -2,2 V22.00000000000003 a2,2 0 0 0 2,2 H22 a2,2 0 0 0 2,-2 v-2.5 a2,2 0 0 0 -2,-2 zm0,4.5 h-2.5 v-2.5 H22 zM4.5,8.750000000000028 H2 a2,2 0 0 0 -2,2 v2.5 a2,2 0 0 0 2,2 h2.5 a2,2 0 0 0 2,-2 v-2.5 a2,2 0 0 0 -2,-2 zm0,4.5 H2 v-2.5 h2.5 zM22,8.750000000000028 h-2.5 a2,2 0 0 0 -2,2 v2.5 a2,2 0 0 0 2,2 H22 a2,2 0 0 0 2,-2 v-2.5 a2,2 0 0 0 -2,-2 zm0,4.5 h-2.5 v-2.5 H22 zM4.5,2.842170265414043e-14 H2 a2,2 0 0 0 -2,2 v2.5 a2,2 0 0 0 2,2 h2.5 a2,2 0 0 0 2,-2 V2.0000000000000284 a2,2 0 0 0 -2,-2 zm0,4.5 H2 V2.0000000000000284 h2.5 zm8.75,13 h-2.5 a2,2 0 0 0 -2,2 V22.00000000000003 a2,2 0 0 0 2,2 h2.5 a2,2 0 0 0 2,-2 v-2.5 a2,2 0 0 0 -2,-2 zm0,4.5 h-2.5 v-2.5 h2.5 zm0,-13.25 h-2.5 a2,2 0 0 0 -2,2 v2.5 a2,2 0 0 0 2,2 h2.5 a2,2 0 0 0 2,-2 v-2.5 a2,2 0 0 0 -2,-2 zm0,4.5 h-2.5 v-2.5 h2.5 zm0,-13.25 h-2.5 a2,2 0 0 0 -2,2 v2.5 a2,2 0 0 0 2,2 h2.5 a2,2 0 0 0 2,-2 V2.0000000000000284 a2,2 0 0 0 -2,-2 zm0,4.5 h-2.5 V2.0000000000000284 h2.5 zM22,2.842170265414043e-14 h-2.5 a2,2 0 0 0 -2,2 v2.5 a2,2 0 0 0 2,2 H22 a2,2 0 0 0 2,-2 V2.0000000000000284 a2,2 0 0 0 -2,-2 zm0,4.5 h-2.5 V2.0000000000000284 H22 z" id="svg_1" class="" stroke="none" fill="#ffffff" fill-opacity="1"/></g></svg>