<svg xmlns="http://www.w3.org/2000/svg" width="24" height="24" style=""><rect id="backgroundrect" width="100%" height="100%" x="0" y="0" fill="none" stroke="none"/><title>49 keyboard</title><g class="currentLayer" style=""><title>Layer 1</title><g id="_01_align_center" data-name="01 align center" class="selected" fill="#ffffff" fill-opacity="1"><path d="M21,6H13V2H11V6H3A3,3,0,0,0,0,9V20H24V9A3,3,0,0,0,21,6Zm1,12H2V9A1,1,0,0,1,3,8H21a1,1,0,0,1,1,1Z" id="svg_1" fill="#ffffff" fill-opacity="1"/><rect x="8" y="14" width="8" height="2" id="svg_2" fill="#ffffff" fill-opacity="1"/><rect x="9" y="10" width="3" height="2" id="svg_3" fill="#ffffff" fill-opacity="1"/><rect x="14" y="10" width="6" height="2" id="svg_4" fill="#ffffff" fill-opacity="1"/><rect x="4" y="10" width="3" height="2" id="svg_5" fill="#ffffff" fill-opacity="1"/><rect x="4" y="14" width="2" height="2" id="svg_6" fill="#ffffff" fill-opacity="1"/><rect x="18" y="14" width="2" height="2" id="svg_7" fill="#ffffff" fill-opacity="1"/></g></g></svg>