<svg xmlns="http://www.w3.org/2000/svg" width="24" height="24" style=""><rect id="backgroundrect" width="100%" height="100%" x="0" y="0" fill="none" stroke="none"/><title>143 filter</title><g class="currentLayer" style=""><title>Layer 1</title><g id="_01_align_center" data-name="01 align center" class="selected" fill="#ffffff" fill-opacity="1"><path d="M10.931,2.75a3.728,3.728,0,0,0-7.195,0H0v2H3.736a3.728,3.728,0,0,0,7.195,0H24v-2ZM7.333,5.5a1.75,1.75,0,1,1,1.75-1.75A1.753,1.753,0,0,1,7.333,5.5Z" id="svg_1" fill="#ffffff" fill-opacity="1"/><path d="M16.667,8.25A3.745,3.745,0,0,0,13.07,11H0v2H13.07a3.727,3.727,0,0,0,7.194,0H24V11H20.264A3.745,3.745,0,0,0,16.667,8.25Zm0,5.5A1.75,1.75,0,1,1,18.417,12,1.752,1.752,0,0,1,16.667,13.75Z" id="svg_2" fill="#ffffff" fill-opacity="1"/><path d="M7.333,16.5a3.745,3.745,0,0,0-3.6,2.75H0v2H3.736a3.728,3.728,0,0,0,7.195,0H24v-2H10.931A3.745,3.745,0,0,0,7.333,16.5Zm0,5.5a1.75,1.75,0,1,1,1.75-1.75A1.753,1.753,0,0,1,7.333,22Z" id="svg_3" fill="#ffffff" fill-opacity="1"/></g></g></svg>