<svg xmlns="http://www.w3.org/2000/svg" data-name="Layer 1" width="24" height="24"><rect id="backgroundrect" width="100%" height="100%" x="0" y="0" fill="none" stroke="none"/><g class="currentLayer" style=""><title>Layer 1</title><path d="M1.717,14.7,5.85,24H8.306a2.752,2.752,0,0,0,2.514-3.868L8.539,15H11a5.006,5.006,0,0,1,5,5h2V0H16a5.006,5.006,0,0,1-5,5H3A3,3,0,0,0,0,8v4A3,3,0,0,0,1.717,14.7Zm7.275,6.243A.751.751,0,0,1,8.306,22H7.15L4.039,15H6.35ZM2,8A1,1,0,0,1,3,7h8a6.973,6.973,0,0,0,5-2.111V15.111A6.973,6.973,0,0,0,11,13H3a1,1,0,0,1-1-1Zm20.293,7.707-2.288-2.288,1.414-1.414,2.288,2.288Zm-.836-7.75L20.043,6.543l2.25-2.25,1.414,1.414ZM21,9h3v2H21Z" id="svg_1" class="selected" fill="#ffffff" fill-opacity="1"/></g></svg>