<svg xmlns="http://www.w3.org/2000/svg" width="24" height="24"><rect id="backgroundrect" width="100%" height="100%" x="0" y="0" fill="none" stroke="none"/><title>136 marker</title><g class="currentLayer" style=""><title>Layer 1</title><g id="_01_align_center" data-name="01 align center" class="selected" fill="#ffffff" fill-opacity="1"><path d="M12,24.008l-.7-.6C10.335,22.6,1.909,15.323,1.909,10a10.091,10.091,0,0,1,20.182,0c0,5.323-8.426,12.6-9.387,13.412ZM12,2.091A7.918,7.918,0,0,0,4.091,10c0,3.344,5.184,8.686,7.909,11.131C14.725,18.685,19.909,13.34,19.909,10A7.918,7.918,0,0,0,12,2.091Z" id="svg_1" fill="#ffffff" fill-opacity="1"/><path d="M12,14a4,4,0,1,1,4-4A4,4,0,0,1,12,14Zm0-6a2,2,0,1,0,2,2A2,2,0,0,0,12,8Z" id="svg_2" fill="#ffffff" fill-opacity="1"/></g></g></svg>