<svg xmlns="http://www.w3.org/2000/svg" width="24" height="24" style=""><rect id="backgroundrect" width="100%" height="100%" x="0" y="0" fill="none" stroke="none"/><title>146 subtitles</title><g class="currentLayer" style=""><title>Layer 1</title><g id="_01_align_center" data-name="01 align center" class="selected" fill="#ffffff" fill-opacity="1"><path d="M24,22H0V5A3,3,0,0,1,3,2H21a3,3,0,0,1,3,3ZM2,20H22V5a1,1,0,0,0-1-1H3A1,1,0,0,0,2,5Z" id="svg_1" fill="#ffffff" fill-opacity="1"/><rect x="9" y="11" width="11" height="2" id="svg_2" fill="#ffffff" fill-opacity="1"/><rect x="4" y="11" width="3" height="2" id="svg_3" fill="#ffffff" fill-opacity="1"/><rect x="4" y="16" width="11" height="2" id="svg_4" fill="#ffffff" fill-opacity="1"/><rect x="17" y="16" width="3" height="2" id="svg_5" fill="#ffffff" fill-opacity="1"/></g></g></svg>