<svg xmlns="http://www.w3.org/2000/svg" xmlns:xlink="http://www.w3.org/1999/xlink" version="1.1" style="enable-background:new 0 0 430 430;" xml:space="preserve" width="430" height="430"><rect id="backgroundrect" width="100%" height="100%" x="0" y="0" fill="none" stroke="none"/>
















<g class="currentLayer" style=""><title>Layer 1</title><path style="stroke:#000000;stroke-width:0;stroke-linecap:round;stroke-linejoin:round;" d="M428.375,275.903L396.7,242.626  c-1.113-1.17-2.657-1.827-4.27-1.827h-13.775c0-0.007,0.001-0.013,0.001-0.02v-7.661c0-3.743-3.036-6.783-6.78-6.783  c-3.747,0-6.78,3.04-6.78,6.783v7.661c0,0.007,0.001,0.013,0.001,0.02H276.07V218.84l93.825-93.825  c4.605-4.604,4.605-12.071,0-16.676c-4.604-4.605-12.071-4.605-16.676,0l-94.985,94.985h-15.18v37.475h-12.692V138.47  c0-3.26-2.641-5.899-5.896-5.899h-7.475v-3.831c0-3.744-3.037-6.777-6.78-6.777c-3.747,0-6.78,3.033-6.78,6.777v3.831H151.17  c-1.683,0-3.289,0.725-4.407,1.981l-56.266,63.29H59.756c-0.534-0.018-1.063-0.023-1.583-0.023c-29.13,0-40.75,21.339-42.923,32.943  l-1.648,5.604H7.189c-3.971,0-7.189,3.222-7.189,7.189v35.119c0,3.053,1.909,5.658,4.597,6.699c0.727,0.313,1.516,0.49,2.329,0.49  h0.264h18.431c1.617,21.913,19.951,39.252,42.272,39.252c22.319,0,40.653-17.339,42.27-39.252h198.569  c1.616,21.913,19.95,39.252,42.27,39.252c22.321,0,40.655-17.339,42.271-39.252h30.832c2.359,0,4.49-1.408,5.418-3.572  C430.452,280.121,430,277.607,428.375,275.903z M67.893,303.992c-11.733,0-21.278-9.544-21.278-21.275  c0-11.731,9.545-21.275,21.278-21.275c11.731,0,21.275,9.544,21.275,21.275C89.168,294.448,79.624,303.992,67.893,303.992z   M203.866,193.891h-70.413l34.427-40.093h35.986V193.891z M351.001,303.992c-11.732,0-21.275-9.544-21.275-21.275  c0-11.731,9.544-21.275,21.275-21.275c11.733,0,21.278,9.544,21.278,21.275C372.279,294.448,362.734,303.992,351.001,303.992z" id="svg_1" class="selected" fill="#ffffff" fill-opacity="1"/><g id="svg_2">
</g><g id="svg_3">
</g><g id="svg_4">
</g><g id="svg_5">
</g><g id="svg_6">
</g><g id="svg_7">
</g><g id="svg_8">
</g><g id="svg_9">
</g><g id="svg_10">
</g><g id="svg_11">
</g><g id="svg_12">
</g><g id="svg_13">
</g><g id="svg_14">
</g><g id="svg_15">
</g><g id="svg_16">
</g></g></svg>